<svg xmlns="http://www.w3.org/2000/svg" viewBox="0 0 533.5 544.3">
  <path fill="#4285F4" d="M533.5 278.4c0-18.5-1.7-36.4-5-53.6H272v101.5h147.1c-6.4 34.4-25.8 63.6-55 83v68h88.9c52 47.9 80.5 118.5 80.5 203.1z"/>
  <path fill="#34A853" d="M272 544.3c73.2 0 134.7-24.2 179.6-65.5l-88.9-68c-24.7 16.6-56.3 26.4-90.7 26.4-69.7 0-128.8-47-150-110.1h-89.8v69.2c44.7 88.6 136.5 148 240.8 148z"/>
  <path fill="#FBBC04" d="M122 327.1c-10.8-32-10.8-66.4 0-98.4V159.5H32.2c-41.7 82.8-41.7 182.4 0 265.2z"/>
  <path fill="#EA4335" d="M272 106.2c37.6-.6 73.5 13.6 100.7 39.5l75.2-75.2C401.5 16.6 340 0 272 0 167.7 0 75.9 59.4 31.2 148l90.8 69.2C143.2 154.1 202.3 106.2 272 106.2z"/>
</svg>
